<svg width="141" height="40" viewBox="0 0 141 40" fill="none" xmlns="http://www.w3.org/2000/svg">
<rect width="141" height="40" fill="white"/>
<g filter="url(#filter0_i_0_1)">
<path d="M0.896 15.072C0.896 13.216 1.26933 11.5947 2.016 10.208C2.784 8.82133 3.84 7.75467 5.184 7.008C6.54933 6.26133 8.10667 5.888 9.856 5.888C12.096 5.888 13.9627 6.47467 15.456 7.648C16.9707 8.82133 17.9627 10.4747 18.432 12.608H12.608C12.1173 11.2427 11.168 10.56 9.76 10.56C8.75733 10.56 7.95733 10.9547 7.36 11.744C6.76267 12.512 6.464 13.6213 6.464 15.072C6.464 16.5227 6.76267 17.6427 7.36 18.432C7.95733 19.2 8.75733 19.584 9.76 19.584C11.168 19.584 12.1173 18.9013 12.608 17.536H18.432C17.9627 19.6267 16.9707 21.2693 15.456 22.464C13.9413 23.6587 12.0747 24.256 9.856 24.256C8.10667 24.256 6.54933 23.8827 5.184 23.136C3.84 22.3893 2.784 21.3227 2.016 19.936C1.26933 18.5493 0.896 16.928 0.896 15.072ZM20.271 15.04C20.271 13.2053 20.6123 11.5947 21.295 10.208C21.999 8.82133 22.9483 7.75467 24.143 7.008C25.3377 6.26133 26.671 5.888 28.143 5.888C29.4017 5.888 30.5003 6.144 31.439 6.656C32.399 7.168 33.135 7.84 33.647 8.672V6.144H39.119V24H33.647V21.472C33.1137 22.304 32.367 22.976 31.407 23.488C30.4683 24 29.3697 24.256 28.111 24.256C26.6603 24.256 25.3377 23.8827 24.143 23.136C22.9483 22.368 21.999 21.2907 21.295 19.904C20.6123 18.496 20.271 16.8747 20.271 15.04ZM33.647 15.072C33.647 13.7067 33.263 12.6293 32.495 11.84C31.7483 11.0507 30.831 10.656 29.743 10.656C28.655 10.656 27.727 11.0507 26.959 11.84C26.2123 12.608 25.839 13.6747 25.839 15.04C25.839 16.4053 26.2123 17.4933 26.959 18.304C27.727 19.0933 28.655 19.488 29.743 19.488C30.831 19.488 31.7483 19.0933 32.495 18.304C33.263 17.5147 33.647 16.4373 33.647 15.072ZM50.3418 24.256C48.7844 24.256 47.3978 23.9893 46.1818 23.456C44.9658 22.9227 44.0058 22.1973 43.3018 21.28C42.5978 20.3413 42.2031 19.296 42.1178 18.144H47.5258C47.5898 18.7627 47.8778 19.264 48.3898 19.648C48.9018 20.032 49.5311 20.224 50.2778 20.224C50.9604 20.224 51.4831 20.096 51.8458 19.84C52.2298 19.5627 52.4218 19.2107 52.4218 18.784C52.4218 18.272 52.1551 17.8987 51.6218 17.664C51.0884 17.408 50.2244 17.1307 49.0298 16.832C47.7498 16.5333 46.6831 16.224 45.8298 15.904C44.9764 15.5627 44.2404 15.04 43.6218 14.336C43.0031 13.6107 42.6938 12.64 42.6938 11.424C42.6938 10.4 42.9711 9.472 43.5258 8.64C44.1018 7.78667 44.9338 7.11467 46.0218 6.624C47.1311 6.13333 48.4431 5.888 49.9578 5.888C52.1978 5.888 53.9578 6.44267 55.2378 7.552C56.5391 8.66133 57.2858 10.1333 57.4778 11.968H52.4218C52.3364 11.3493 52.0591 10.8587 51.5898 10.496C51.1418 10.1333 50.5444 9.952 49.7978 9.952C49.1578 9.952 48.6671 10.08 48.3258 10.336C47.9844 10.5707 47.8138 10.9013 47.8138 11.328C47.8138 11.84 48.0804 12.224 48.6138 12.48C49.1684 12.736 50.0218 12.992 51.1738 13.248C52.4964 13.5893 53.5738 13.9307 54.4058 14.272C55.2378 14.592 55.9631 15.1253 56.5818 15.872C57.2218 16.5973 57.5524 17.5787 57.5738 18.816C57.5738 19.8613 57.2751 20.8 56.6778 21.632C56.1018 22.4427 55.2591 23.0827 54.1498 23.552C53.0618 24.0213 51.7924 24.256 50.3418 24.256ZM59.8335 15.072C59.8335 13.216 60.2068 11.5947 60.9535 10.208C61.7215 8.82133 62.7775 7.75467 64.1215 7.008C65.4868 6.26133 67.0442 5.888 68.7935 5.888C71.0335 5.888 72.9002 6.47467 74.3935 7.648C75.9082 8.82133 76.9002 10.4747 77.3695 12.608H71.5455C71.0548 11.2427 70.1055 10.56 68.6975 10.56C67.6948 10.56 66.8948 10.9547 66.2975 11.744C65.7002 12.512 65.4015 13.6213 65.4015 15.072C65.4015 16.5227 65.7002 17.6427 66.2975 18.432C66.8948 19.2 67.6948 19.584 68.6975 19.584C70.1055 19.584 71.0548 18.9013 71.5455 17.536H77.3695C76.9002 19.6267 75.9082 21.2693 74.3935 22.464C72.8788 23.6587 71.0122 24.256 68.7935 24.256C67.0442 24.256 65.4868 23.8827 64.1215 23.136C62.7775 22.3893 61.7215 21.3227 60.9535 19.936C60.2068 18.5493 59.8335 16.928 59.8335 15.072ZM79.2085 15.04C79.2085 13.2053 79.5498 11.5947 80.2325 10.208C80.9365 8.82133 81.8858 7.75467 83.0805 7.008C84.2752 6.26133 85.6085 5.888 87.0805 5.888C88.3392 5.888 89.4378 6.144 90.3765 6.656C91.3365 7.168 92.0725 7.84 92.5845 8.672V6.144H98.0565V24H92.5845V21.472C92.0512 22.304 91.3045 22.976 90.3445 23.488C89.4058 24 88.3072 24.256 87.0485 24.256C85.5978 24.256 84.2752 23.8827 83.0805 23.136C81.8858 22.368 80.9365 21.2907 80.2325 19.904C79.5498 18.496 79.2085 16.8747 79.2085 15.04ZM92.5845 15.072C92.5845 13.7067 92.2005 12.6293 91.4325 11.84C90.6858 11.0507 89.7685 10.656 88.6805 10.656C87.5925 10.656 86.6645 11.0507 85.8965 11.84C85.1498 12.608 84.7765 13.6747 84.7765 15.04C84.7765 16.4053 85.1498 17.4933 85.8965 18.304C86.6645 19.0933 87.5925 19.488 88.6805 19.488C89.7685 19.488 90.6858 19.0933 91.4325 18.304C92.2005 17.5147 92.5845 16.4373 92.5845 15.072ZM100.927 15.04C100.927 13.2053 101.269 11.5947 101.951 10.208C102.655 8.82133 103.605 7.75467 104.799 7.008C105.994 6.26133 107.327 5.888 108.799 5.888C109.973 5.888 111.039 6.13333 111.999 6.624C112.981 7.11467 113.749 7.776 114.303 8.608V0.32H119.775V24H114.303V21.44C113.791 22.2933 113.055 22.976 112.095 23.488C111.157 24 110.058 24.256 108.799 24.256C107.327 24.256 105.994 23.8827 104.799 23.136C103.605 22.368 102.655 21.2907 101.951 19.904C101.269 18.496 100.927 16.8747 100.927 15.04ZM114.303 15.072C114.303 13.7067 113.919 12.6293 113.151 11.84C112.405 11.0507 111.487 10.656 110.399 10.656C109.311 10.656 108.383 11.0507 107.615 11.84C106.869 12.608 106.495 13.6747 106.495 15.04C106.495 16.4053 106.869 17.4933 107.615 18.304C108.383 19.0933 109.311 19.488 110.399 19.488C111.487 19.488 112.405 19.0933 113.151 18.304C113.919 17.5147 114.303 16.4373 114.303 15.072ZM140.566 14.784C140.566 15.296 140.534 15.8293 140.47 16.384H128.086C128.171 17.4933 128.523 18.3467 129.142 18.944C129.782 19.52 130.561 19.808 131.478 19.808C132.843 19.808 133.793 19.232 134.326 18.08H140.15C139.851 19.2533 139.307 20.3093 138.518 21.248C137.75 22.1867 136.779 22.9227 135.606 23.456C134.433 23.9893 133.121 24.256 131.67 24.256C129.921 24.256 128.363 23.8827 126.998 23.136C125.633 22.3893 124.566 21.3227 123.798 19.936C123.03 18.5493 122.646 16.928 122.646 15.072C122.646 13.216 123.019 11.5947 123.766 10.208C124.534 8.82133 125.601 7.75467 126.966 7.008C128.331 6.26133 129.899 5.888 131.67 5.888C133.398 5.888 134.934 6.25067 136.278 6.976C137.622 7.70133 138.667 8.736 139.414 10.08C140.182 11.424 140.566 12.992 140.566 14.784ZM134.966 13.344C134.966 12.4053 134.646 11.6587 134.006 11.104C133.366 10.5493 132.566 10.272 131.606 10.272C130.689 10.272 129.91 10.5387 129.27 11.072C128.651 11.6053 128.267 12.3627 128.118 13.344H134.966Z" fill="#1E1E1E"/>
</g>
<path d="M6.468 36.096C5.884 36.096 5.364 35.996 4.908 35.796C4.452 35.596 4.092 35.324 3.828 34.98C3.564 34.628 3.416 34.236 3.384 33.804H5.412C5.436 34.036 5.544 34.224 5.736 34.368C5.928 34.512 6.164 34.584 6.444 34.584C6.7 34.584 6.896 34.536 7.032 34.44C7.176 34.336 7.248 34.204 7.248 34.044C7.248 33.852 7.148 33.712 6.948 33.624C6.748 33.528 6.424 33.424 5.976 33.312C5.496 33.2 5.096 33.084 4.776 32.964C4.456 32.836 4.18 32.64 3.948 32.376C3.716 32.104 3.6 31.74 3.6 31.284C3.6 30.9 3.704 30.552 3.912 30.24C4.128 29.92 4.44 29.668 4.848 29.484C5.264 29.3 5.756 29.208 6.324 29.208C7.164 29.208 7.824 29.416 8.304 29.832C8.792 30.248 9.072 30.8 9.144 31.488H7.248C7.216 31.256 7.112 31.072 6.936 30.936C6.768 30.8 6.544 30.732 6.264 30.732C6.024 30.732 5.84 30.78 5.712 30.876C5.584 30.964 5.52 31.088 5.52 31.248C5.52 31.44 5.62 31.584 5.82 31.68C6.028 31.776 6.348 31.872 6.78 31.968C7.276 32.096 7.68 32.224 7.992 32.352C8.304 32.472 8.576 32.672 8.808 32.952C9.048 33.224 9.172 33.592 9.18 34.056C9.18 34.448 9.068 34.8 8.844 35.112C8.628 35.416 8.312 35.656 7.896 35.832C7.488 36.008 7.012 36.096 6.468 36.096ZM14.1674 34.26V36H13.1234C12.3794 36 11.7994 35.82 11.3834 35.46C10.9674 35.092 10.7594 34.496 10.7594 33.672V31.008H9.94341V29.304H10.7594V27.672H12.8114V29.304H14.1554V31.008H12.8114V33.696C12.8114 33.896 12.8594 34.04 12.9554 34.128C13.0514 34.216 13.2114 34.26 13.4354 34.26H14.1674ZM14.9024 32.64C14.9024 31.952 15.0304 31.348 15.2864 30.828C15.5504 30.308 15.9064 29.908 16.3544 29.628C16.8024 29.348 17.3024 29.208 17.8544 29.208C18.3264 29.208 18.7384 29.304 19.0904 29.496C19.4504 29.688 19.7264 29.94 19.9184 30.252V29.304H21.9704V36H19.9184V35.052C19.7184 35.364 19.4384 35.616 19.0784 35.808C18.7264 36 18.3144 36.096 17.8424 36.096C17.2984 36.096 16.8024 35.956 16.3544 35.676C15.9064 35.388 15.5504 34.984 15.2864 34.464C15.0304 33.936 14.9024 33.328 14.9024 32.64ZM19.9184 32.652C19.9184 32.14 19.7744 31.736 19.4864 31.44C19.2064 31.144 18.8624 30.996 18.4544 30.996C18.0464 30.996 17.6984 31.144 17.4104 31.44C17.1304 31.728 16.9904 32.128 16.9904 32.64C16.9904 33.152 17.1304 33.56 17.4104 33.864C17.6984 34.16 18.0464 34.308 18.4544 34.308C18.8624 34.308 19.2064 34.16 19.4864 33.864C19.7744 33.568 19.9184 33.164 19.9184 32.652ZM30.2949 29.304L26.0949 39.18H23.8869L25.4229 35.772L22.6989 29.304H24.9909L26.5389 33.492L28.0749 29.304H30.2949ZM34.6119 28.608C34.2519 28.608 33.9559 28.504 33.7239 28.296C33.4999 28.08 33.3879 27.816 33.3879 27.504C33.3879 27.184 33.4999 26.92 33.7239 26.712C33.9559 26.496 34.2519 26.388 34.6119 26.388C34.9639 26.388 35.2519 26.496 35.4759 26.712C35.7079 26.92 35.8239 27.184 35.8239 27.504C35.8239 27.816 35.7079 28.08 35.4759 28.296C35.2519 28.504 34.9639 28.608 34.6119 28.608ZM35.6319 29.304V36H33.5799V29.304H35.6319ZM41.199 29.232C41.983 29.232 42.607 29.488 43.071 30C43.543 30.504 43.779 31.2 43.779 32.088V36H41.739V32.364C41.739 31.916 41.623 31.568 41.391 31.32C41.159 31.072 40.847 30.948 40.455 30.948C40.063 30.948 39.751 31.072 39.519 31.32C39.287 31.568 39.171 31.916 39.171 32.364V36H37.119V29.304H39.171V30.192C39.379 29.896 39.659 29.664 40.011 29.496C40.363 29.32 40.759 29.232 41.199 29.232ZM51.4799 34.26V36H50.4359C49.6919 36 49.1119 35.82 48.6959 35.46C48.2799 35.092 48.0719 34.496 48.0719 33.672V31.008H47.2559V29.304H48.0719V27.672H50.1239V29.304H51.4679V31.008H50.1239V33.696C50.1239 33.896 50.1719 34.04 50.2679 34.128C50.3639 34.216 50.5239 34.26 50.7479 34.26H51.4799ZM55.6709 36.096C55.0149 36.096 54.4229 35.956 53.8949 35.676C53.3749 35.396 52.9629 34.996 52.6589 34.476C52.3629 33.956 52.2149 33.348 52.2149 32.652C52.2149 31.964 52.3669 31.36 52.6709 30.84C52.9749 30.312 53.3909 29.908 53.9189 29.628C54.4469 29.348 55.0389 29.208 55.6949 29.208C56.3509 29.208 56.9429 29.348 57.4709 29.628C57.9989 29.908 58.4149 30.312 58.7189 30.84C59.0229 31.36 59.1749 31.964 59.1749 32.652C59.1749 33.34 59.0189 33.948 58.7069 34.476C58.4029 34.996 57.9829 35.396 57.4469 35.676C56.9189 35.956 56.3269 36.096 55.6709 36.096ZM55.6709 34.32C56.0629 34.32 56.3949 34.176 56.6669 33.888C56.9469 33.6 57.0869 33.188 57.0869 32.652C57.0869 32.116 56.9509 31.704 56.6789 31.416C56.4149 31.128 56.0869 30.984 55.6949 30.984C55.2949 30.984 54.9629 31.128 54.6989 31.416C54.4349 31.696 54.3029 32.108 54.3029 32.652C54.3029 33.188 54.4309 33.6 54.6869 33.888C54.9509 34.176 55.2789 34.32 55.6709 34.32ZM66.8755 29.304V36H64.8235V35.088C64.6155 35.384 64.3315 35.624 63.9715 35.808C63.6195 35.984 63.2275 36.072 62.7955 36.072C62.2835 36.072 61.8315 35.96 61.4395 35.736C61.0475 35.504 60.7435 35.172 60.5275 34.74C60.3115 34.308 60.2035 33.8 60.2035 33.216V29.304H62.2435V32.94C62.2435 33.388 62.3595 33.736 62.5915 33.984C62.8235 34.232 63.1355 34.356 63.5275 34.356C63.9275 34.356 64.2435 34.232 64.4755 33.984C64.7075 33.736 64.8235 33.388 64.8235 32.94V29.304H66.8755ZM67.9415 32.652C67.9415 31.956 68.0815 31.348 68.3615 30.828C68.6495 30.308 69.0455 29.908 69.5495 29.628C70.0615 29.348 70.6455 29.208 71.3015 29.208C72.1415 29.208 72.8415 29.428 73.4015 29.868C73.9695 30.308 74.3415 30.928 74.5175 31.728H72.3335C72.1495 31.216 71.7935 30.96 71.2655 30.96C70.8895 30.96 70.5895 31.108 70.3655 31.404C70.1415 31.692 70.0295 32.108 70.0295 32.652C70.0295 33.196 70.1415 33.616 70.3655 33.912C70.5895 34.2 70.8895 34.344 71.2655 34.344C71.7935 34.344 72.1495 34.088 72.3335 33.576H74.5175C74.3415 34.36 73.9695 34.976 73.4015 35.424C72.8335 35.872 72.1335 36.096 71.3015 36.096C70.6455 36.096 70.0615 35.956 69.5495 35.676C69.0455 35.396 68.6495 34.996 68.3615 34.476C68.0815 33.956 67.9415 33.348 67.9415 32.652ZM79.7311 29.232C80.4991 29.232 81.1151 29.488 81.5791 30C82.0431 30.504 82.2751 31.2 82.2751 32.088V36H80.2351V32.364C80.2351 31.916 80.1191 31.568 79.8871 31.32C79.6551 31.072 79.3431 30.948 78.9511 30.948C78.5591 30.948 78.2471 31.072 78.0151 31.32C77.7831 31.568 77.6671 31.916 77.6671 32.364V36H75.6151V27.12H77.6671V30.204C77.8751 29.908 78.1591 29.672 78.5191 29.496C78.8791 29.32 79.2831 29.232 79.7311 29.232Z" fill="black"/>
<defs>
<filter id="filter0_i_0_1" x="0.895996" y="0.319999" width="139.67" height="27.936" filterUnits="userSpaceOnUse" color-interpolation-filters="sRGB">
<feFlood flood-opacity="0" result="BackgroundImageFix"/>
<feBlend mode="normal" in="SourceGraphic" in2="BackgroundImageFix" result="shape"/>
<feColorMatrix in="SourceAlpha" type="matrix" values="0 0 0 0 0 0 0 0 0 0 0 0 0 0 0 0 0 0 127 0" result="hardAlpha"/>
<feOffset dy="4"/>
<feGaussianBlur stdDeviation="2"/>
<feComposite in2="hardAlpha" operator="arithmetic" k2="-1" k3="1"/>
<feColorMatrix type="matrix" values="0 0 0 0 0 0 0 0 0 0 0 0 0 0 0 0 0 0 0.25 0"/>
<feBlend mode="normal" in2="shape" result="effect1_innerShadow_0_1"/>
</filter>
</defs>
</svg>
